<?xml version="1.0" encoding="utf-8"?>
<!-- Generator: Adobe Illustrator 15.0.0, SVG Export Plug-In . SVG Version: 6.00 Build 0)  -->
<!DOCTYPE svg PUBLIC "-//W3C//DTD SVG 1.1//EN" "http://www.w3.org/Graphics/SVG/1.1/DTD/svg11.dtd">
<svg version="1.1" id="Layer_1" xmlns="http://www.w3.org/2000/svg" xmlns:xlink="http://www.w3.org/1999/xlink" x="0px" y="0px"
	 width="350px" height="300px" viewBox="0 0 350 300" enable-background="new 0 0 350 300" xml:space="preserve">
<g>
	<path stroke="#FFFFFF" stroke-width="3" stroke-miterlimit="3.8637" d="M238.916,288.759
		c-2.337,23.322-115.17,0.224-180.137-54.724C3.609,187.376-7.093,110.643,8.612,94.935c5.939-8.943,12.02-16.545,18.24-22.805
		c-3.039-14.733-3.039-32.215,0-52.447c23.496-3.933,47.056-0.133,70.689,11.403C167.993-6.107,229.563-5.347,282.24,33.364
		c27.123-0.759,46.885,1.522,59.287,6.841c7.045,13.605-0.286,34.205,6.839,57.007c0,0-58.146,39.336-58.432,46.747
		c-0.276,7.206,39.335,32.497,39.335,32.497c-6.82,14.42-20.408,29.436-33.35,34.773c-12.469,3.872-23.871,4.631-34.204,2.28
		C249.913,229.819,242.314,254.897,238.916,288.759z"/>
	<path fill="#F99D1C" d="M223.239,77.831c-27.16-18.845-54.525-17.895-82.088,2.851c21.573,10.488,36.202,24.171,43.893,41.047
		c-17.06,0.849-31.123,7.121-42.183,18.813c9.859-2.606,17.841-2.227,23.942,1.14c-19.553,11.31-30.385,26.512-32.494,45.61
		c-2.827-1.424-20.593-5.981-20.806-11.402c-5.244,10.272-8.095,26.044-8.553,47.318c7.471-15.121,32.269-25.385,41.9-33.065
		c-2.149,18.46,5.641,40.502,23.373,66.129c1.456-37.924,16.275-62.437,44.464-73.543c-5.459-8.763-16.098-14.845-31.925-18.239
		c23.132-4.195,54.728,37.626,110.023,25.084C232.93,181.018,203.989,137.812,223.239,77.831z"/>
	<path d="M261.718,63.01c-24.139,4.388-31.11,10.508-42.469,25.655c-8.551,11.401-11.972,20.524-13.681,37.625
		c-2.853-18.812-2.291-26.341,9.119-41.616C229.632,64.671,239.505,59.796,261.718,63.01z"/>
	<path fill="#F99D1C" d="M64.764,95.79c-23.543-2.665-33.043-23.188-28.503-61.57c18.211-6.135,38.164-3.476,59.855,7.981
		c65.764-31.797,116.5-34.742,152.205-13.966c-9.165-3.092-15.962-2.566-21.092-4.56c8.436,6.111,16.034,13.238,20.523,24.228
		c-20.237-11.117-66.696-10.261-92.349,5.701c6.827-7.022,27.255-15.099,36.766-17.958c-3.989-4.275-21.946-2.281-29.357-1.141
		c9.691-7.411,36.483-14.253,50.165-13.397c-41.043-9.69-121.559,29.237-137.955,65.559c1.141-1.71,7.982-31.354,7.982-31.354
		c-14.519-6.441-24.969-8.339-31.355-5.702C42.686,64.269,47.056,79.662,64.764,95.79z"/>
	<path fill="#F99D1C" d="M296.776,161.635c-37.055,15.393-45.035-18.813-57.006-23.375c5.242,5.661,8.095,13.074,8.55,22.232
		c-7.609-8.651-12.169-16.823-13.682-24.513c12.542-13.682,23.943,5.131,35.914,7.981c0-4.181-2.284-7.602-6.84-10.263
		C275.114,129.14,281.385,150.802,296.776,161.635z"/>
	<path fill="#F99D1C" d="M232.074,129.71c29.645-25.447,55.87-46.16,83.229-51.879c7.696-8.551-7.125-8.551-3.421-15.391
		c4.772,2.642,8.622,0.837,12.966-2.565c1.713-2.566,3.233-5.492-0.566-9.692c-9.073-2.419-6.983,8.837-14.683,8.837
		c-5.031-10.215-14.532-11.165-28.499-13.112c-7.069,0.644-54.441,21.328-54.441,49.598c0,20.198-2.519,23.219,14.536,14.823
		L232.074,129.71z"/>
	<path fill="#F99D1C" d="M339.388,60.443c-5.867-0.059-8.28-2.207-8.78-7.987C335.207,43.971,345.062,59.565,339.388,60.443z"/>
	<path fill="#FFFFFF" d="M276.255,106.907c0,0,10.261,18.812,10.831,17.102c-0.227,0.682,4.56-18.243,3.42-21.094
		c-0.474-1.184,19.953-1.141,19.953-1.141l4.56,11.402c3.627-7.882,4.957-15.673,3.99-23.372
		C303.161,93.559,288.91,99.259,276.255,106.907z"/>
	<path fill="#FFFFFF" d="M224.095,63.863c-6.94-4.347-14.924-7.673-23.944-9.978c6.065-0.093,11.671-1.233,16.817-3.418l-3.99,4.56
		c8.527,4.216,13.086,3.457,13.682-2.28l3.42,1.709C229.583,58.39,227.588,61.527,224.095,63.863z"/>
</g>
<g display="none">
	<path display="inline" fill="#152C53" stroke="#FFC226" stroke-width="4" stroke-miterlimit="3.8637" d="M20.892,186.804
		c12.789-36.24,134.942-10.489,207.658,86c-1.749-29.717-8.391-60.13-27.968-85.301c5.488-0.171,56.284,8.739,82.154,47.894
		c-0.699-31.464-23.072-66.424-40.203-82.855c36.708-2.447,68.521,11.188,96.487,32.164c-24.121-57.684-61.878-82.155-98.934-87.749
		c23.772-12.585,76.211-10.488,103.829-8.048c-30.065-30.058-116.679-33.42-174.437-31.701
		c-82.291,2.45-143.157,30.416-140.897,51.984C-3.544,126.745-6.107,152.616,20.892,186.804z"/>
	<path display="inline" fill="#FFC226" d="M22.988,158.835c9.574-15.406,30.55-23.33,62.928-23.772
		c-9.742-9.533-22.794-16.06-39.155-19.579c12.247-14.149,32.757-23.939,61.528-29.365c-8.204,4.133-11,7.395-8.391,9.788
		c17.063-4.66,43.632-10.954,68.521-6.293c-18.58-0.057-35.359,9.498-39.155,16.08c4.649,12.737-3.274,22.527-23.772,29.367
		c11.126,3.451,18.585,9.045,22.374,16.781c-36.023-4.564-66.323-1.767-90.894,8.39c23.072-10.836,88.097,6.644,153.821,48.944
		c-11.188-29.016-38.003-58.981-41.952-61.529c22.679,4.532,50.649,1.27,83.902-9.789c-30.987-3.036-65.48-9.329-81.105-17.48
		c6.992-18.179,41.95-33.56,72.715-38.454C112.526,73.103,50.996,84.29,39.769,115.485
		C22.188,124.002,16.595,138.455,22.988,158.835z"/>
	<path display="inline" fill="#FFFFFF" d="M81.019,112.333c7.167,3.677,15.839,4.331,19.404,0.18
		c1.918-2.233,0.839-3.142-4.721-4.37l13.286-3.495C112.483,120.029,88.711,129.113,81.019,112.333z"/>
</g>
</svg>
