<?xml version="1.0" encoding="utf-8"?>
<!-- Generator: Adobe Illustrator 15.0.0, SVG Export Plug-In . SVG Version: 6.00 Build 0)  -->
<!DOCTYPE svg PUBLIC "-//W3C//DTD SVG 1.1//EN" "http://www.w3.org/Graphics/SVG/1.1/DTD/svg11.dtd">
<svg version="1.1" id="Layer_1" xmlns="http://www.w3.org/2000/svg" xmlns:xlink="http://www.w3.org/1999/xlink" x="0px" y="0px"
	 width="350px" height="230.666px" viewBox="0 0 350 230.666" enable-background="new 0 0 350 230.666" xml:space="preserve">
<g display="none">
	<path display="inline" stroke="#FFFFFF" stroke-width="3" stroke-miterlimit="3.8637" d="M238.916,234.759
		c-2.337,23.322-115.17,0.224-180.137-54.724C3.609,133.376-7.093,56.643,8.612,40.934c5.939-8.943,12.02-16.545,18.24-22.805
		c-3.039-14.733-3.039-32.215,0-52.447c23.496-3.933,47.056-0.133,70.689,11.403c70.451-37.192,132.022-36.432,184.699,2.279
		c27.123-0.759,46.885,1.522,59.287,6.841c7.045,13.605-0.286,34.205,6.839,57.007c0,0-58.146,39.336-58.432,46.747
		c-0.276,7.206,39.335,32.497,39.335,32.497c-6.82,14.42-20.408,29.436-33.35,34.773c-12.469,3.872-23.871,4.631-34.204,2.28
		C249.913,175.818,242.314,200.896,238.916,234.759z"/>
	<path display="inline" fill="#F99D1C" d="M223.239,23.83c-27.16-18.845-54.525-17.895-82.088,2.851
		c21.573,10.488,36.202,24.171,43.893,41.047c-17.06,0.849-31.123,7.121-42.183,18.813c9.859-2.606,17.841-2.227,23.942,1.14
		c-19.553,11.31-30.385,26.512-32.494,45.61c-2.827-1.424-20.593-5.981-20.806-11.402c-5.244,10.272-8.095,26.044-8.553,47.318
		c7.471-15.121,32.269-25.385,41.9-33.065c-2.149,18.46,5.641,40.502,23.373,66.129c1.456-37.924,16.275-62.437,44.464-73.543
		c-5.459-8.763-16.098-14.845-31.925-18.239c23.132-4.195,54.728,37.626,110.023,25.084
		C232.93,127.018,203.989,83.812,223.239,23.83z"/>
	<path display="inline" d="M261.718,9.01c-24.139,4.388-31.11,10.508-42.469,25.655c-8.551,11.401-11.972,20.524-13.681,37.625
		c-2.853-18.812-2.291-26.341,9.119-41.616C229.632,10.67,239.505,5.795,261.718,9.01z"/>
	<path display="inline" fill="#F99D1C" d="M64.764,41.789c-23.543-2.665-33.043-23.188-28.503-61.57
		c18.211-6.135,38.164-3.476,59.855,7.981c65.764-31.797,116.5-34.742,152.205-13.966c-9.165-3.092-15.962-2.566-21.092-4.56
		c8.436,6.111,16.034,13.238,20.523,24.228c-20.237-11.117-66.696-10.261-92.349,5.701c6.827-7.022,27.255-15.099,36.766-17.958
		c-3.989-4.275-21.946-2.281-29.357-1.141c9.691-7.411,36.483-14.253,50.165-13.397C171.934-42.583,91.418-3.656,75.023,32.666
		c1.141-1.71,7.982-31.354,7.982-31.354C68.486-5.129,58.036-7.028,51.65-4.39C42.686,10.269,47.056,25.661,64.764,41.789z"/>
	<path display="inline" fill="#F99D1C" d="M296.776,107.635c-37.055,15.393-45.035-18.813-57.006-23.375
		c5.242,5.661,8.095,13.074,8.55,22.232c-7.609-8.651-12.169-16.823-13.682-24.513c12.542-13.682,23.943,5.131,35.914,7.981
		c0-4.181-2.284-7.602-6.84-10.263C275.114,75.14,281.385,96.802,296.776,107.635z"/>
	<path display="inline" fill="#F99D1C" d="M232.074,75.709c29.645-25.447,55.87-46.16,83.229-51.879
		c7.696-8.551-7.125-8.551-3.421-15.391c4.772,2.642,8.622,0.837,12.966-2.565c1.713-2.566,3.233-5.492-0.566-9.692
		c-9.073-2.419-6.983,8.837-14.683,8.837C304.567-5.196,295.066-6.146,281.1-8.094c-7.069,0.644-54.441,21.328-54.441,49.598
		c0,20.198-2.519,23.219,14.536,14.823L232.074,75.709z"/>
	<path display="inline" fill="#F99D1C" d="M339.388,6.443c-5.867-0.059-8.28-2.207-8.78-7.987
		C335.207-10.03,345.062,5.565,339.388,6.443z"/>
	<path display="inline" fill="#FFFFFF" d="M276.255,52.906c0,0,10.261,18.812,10.831,17.102c-0.227,0.682,4.56-18.243,3.42-21.094
		c-0.474-1.184,19.953-1.141,19.953-1.141l4.56,11.402c3.627-7.882,4.957-15.673,3.99-23.372
		C303.161,39.558,288.91,45.258,276.255,52.906z"/>
	<path display="inline" fill="#FFFFFF" d="M224.095,9.863c-6.94-4.347-14.924-7.673-23.944-9.978
		c6.065-0.093,11.671-1.233,16.817-3.418l-3.99,4.56c8.527,4.216,13.086,3.457,13.682-2.28l3.42,1.709
		C229.583,4.39,227.588,7.526,224.095,9.863z"/>
</g>
<g>
	<path fill="#152C53" stroke="#FFC226" stroke-width="4" stroke-miterlimit="3.8637" d="M20.892,136.137
		c12.789-36.24,134.942-10.489,207.658,86c-1.749-29.717-8.391-60.13-27.968-85.301c5.488-0.171,56.284,8.739,82.154,47.894
		c-0.699-31.464-23.072-66.424-40.203-82.855c36.708-2.446,68.521,11.188,96.487,32.164c-24.121-57.684-61.878-82.154-98.934-87.748
		c23.772-12.585,76.211-10.488,103.829-8.049c-30.065-30.058-116.679-33.42-174.437-31.7C87.189,8.99,26.323,36.957,28.583,58.525
		C-3.544,76.077-6.107,101.948,20.892,136.137z"/>
	<path fill="#FFC226" d="M22.988,108.168c9.574-15.405,30.55-23.33,62.928-23.772c-9.742-9.533-22.794-16.06-39.155-19.579
		c12.247-14.149,32.757-23.938,61.528-29.364c-8.204,4.133-11,7.395-8.391,9.787c17.063-4.66,43.632-10.953,68.521-6.293
		c-18.58-0.057-35.359,9.498-39.155,16.08c4.649,12.737-3.274,22.527-23.772,29.367c11.126,3.451,18.585,9.045,22.374,16.78
		c-36.023-4.564-66.323-1.767-90.894,8.39c23.072-10.836,88.097,6.644,153.821,48.944c-11.188-29.016-38.003-58.98-41.952-61.529
		c22.679,4.532,50.649,1.271,83.902-9.788c-30.987-3.036-65.48-9.329-81.105-17.48c6.992-18.179,41.95-33.56,72.715-38.454
		c-111.828-8.82-173.358,2.366-184.585,33.563C22.188,73.335,16.595,87.787,22.988,108.168z"/>
	<path fill="#FFFFFF" d="M81.019,61.666c7.167,3.677,15.839,4.33,19.404,0.18c1.918-2.232,0.839-3.142-4.721-4.37l13.286-3.495
		C112.483,69.362,88.711,78.445,81.019,61.666z"/>
</g>
</svg>
